[Header]			# Header keywords are followed by a single value
FileType htr		# single word string
DataType HTRS		# Hierarchical translations followed by rotations and Scale
FileVersion 1		# integer
NumSegments 20		# integer
NumFrames 4		# integer
DataFrameRate 60	# integer
EulerRotationOrder ZYX	# one word string
CalibrationUnits mm	# one word string
RotationUnits Degrees	# one word string
GlobalAxisofGravity Y	# character, X or Y or Z
BoneLengthAxis Y
ScaleFactor 1.000000
[SegmentNames&Hierarchy]
#CHILD	PARENT
LowerTorso	GLOBAL
UpperTorso	LowerTorso
LCollarBone	UpperTorso
RCollarBone	UpperTorso
LUpArm	LCollarBone
RUpArm	RCollarBone
LLowArm	LUpArm
RLowArm	RUpArm
LHand	LLowArm
RHand	RLowArm
LPelvis	LowerTorso
RPelvis	LowerTorso
LThigh	LPelvis
RThigh	RPelvis
LLowLeg	LThigh
RLowLeg	RThigh
LFoot	LLowLeg
RFoot	RLowLeg
Neck	UpperTorso
Head	Neck
[BasePosition]
#SegmentName Tx, Ty, Tz, Rx, Ry, Rz, BoneLength
LowerTorso	0.000000	0.000000	0.000000	0.000000	0.000000	0.000000	247.497849
UpperTorso	0.000000	247.497849	0.000000	-3.483188	-0.016176	-0.898562	303.935425
LCollarBone	0.000000	303.935425	0.000000	-2.778975	2.380151	-103.909637	160.814774
RCollarBone	0.000000	303.935425	0.000000	1.923138	-2.431442	97.423370	173.085861
LUpArm	0.000000	160.814774	0.000000	9.905276	-0.146364	3.830753	266.228302
RUpArm	0.000000	173.085861	0.000000	3.559436	0.163580	4.186032	250.544907
LLowArm	0.000000	266.228302	0.000000	0.604391	2.460426	18.478745	239.401855
RLowArm	0.000000	250.544907	0.000000	-4.677841	-1.676118	-16.763147	247.676224
LHand	0.000000	239.401855	0.000000	-2.922581	-1.504997	-10.879651	178.693573
RHand	0.000000	247.676224	0.000000	8.087741	0.221451	14.771751	171.097885
LPelvis	0.000000	0.000000	0.000000	25.628080	-1.004481	-103.107483	127.213554
RPelvis	0.000000	0.000000	0.000000	7.212610	1.026056	95.806335	154.731140
LThigh	0.000000	127.213554	0.000000	-8.629928	-24.934669	-78.343170	392.414856
RThigh	0.000000	154.731140	0.000000	-0.087953	7.045837	82.361420	403.151337
LLowLeg	0.000000	392.414856	0.000000	-11.135172	-0.396179	6.207254	411.539612
RLowLeg	0.000000	403.151337	0.000000	-15.879393	-0.038285	-2.567663	396.965240
LFoot	0.000000	411.539612	0.000000	86.993790	-9.419292	-7.421347	182.020935
RFoot	0.000000	396.965240	0.000000	85.685738	19.489246	8.810133	181.714371
Neck	0.000000	303.935425	0.000000	26.917892	0.010495	-0.245093	141.112030
Head	0.000000	141.112030	0.000000	-34.290924	-1.751020	-3.852423	164.098740
#Beginning of Data. Separated by tabs.
[LowerTorso]
#Fr	Tx	Ty	Tz	Rx	Ry	Rz	SF
687	-449.917114	900.539307	-456.146942	31.491413	50.902996	22.280107	1.000000
688	-432.075256	898.824280	-447.921478	29.751625	48.823418	20.515062	1.000000
689	-414.011292	895.442932	-438.973297	28.026749	46.802475	18.911306	1.000000
690	-395.562683	890.301636	-429.337921	26.338394	44.820705	17.389065	1.000000
[UpperTorso]
#Fr	Tx	Ty	Tz	Rx	Ry	Rz	SF
687	0.000000	0.000000	0.000000	16.341105	13.932609	-9.437084	1.000000
688	0.000000	0.000000	0.000000	15.934577	14.543616	-9.505527	1.000000
689	0.000000	0.000000	0.000000	15.542196	15.151771	-9.539857	1.000000
690	0.000000	0.000000	0.000000	15.210704	15.783391	-9.446525	1.000000
[LCollarBone]
#Fr	Tx	Ty	Tz	Rx	Ry	Rz	SF
687	0.000000	0.000000	0.000000	4.572564	0.310300	6.885748	1.000000
688	0.000000	0.000000	0.000000	7.121366	0.740357	6.187657	1.000000
689	0.000000	0.000000	0.000000	9.451290	1.183277	5.519902	1.000000
690	0.000000	0.000000	0.000000	10.798378	1.513552	4.903872	1.000000
[RCollarBone]
#Fr	Tx	Ty	Tz	Rx	Ry	Rz	SF
687	0.000000	0.000000	0.000000	-3.718964	-1.923715	-22.442606	1.000000
688	0.000000	0.000000	0.000000	-1.622266	-1.263150	-21.048241	1.000000
689	0.000000	0.000000	0.000000	0.367121	-0.720401	-19.678541	1.000000
690	0.000000	0.000000	0.000000	1.927580	-0.355684	-18.469305	1.000000
[LUpArm]
#Fr	Tx	Ty	Tz	Rx	Ry	Rz	SF
687	0.000000	0.000000	0.000000	-17.131891	-7.308716	-11.560833	1.000000
688	0.000000	0.000000	0.000000	-23.522617	-9.029447	-9.549227	1.000000
689	0.000000	0.000000	0.000000	-29.264008	-10.435540	-7.581695	1.000000
690	0.000000	0.000000	0.000000	-32.858555	-11.052168	-6.364295	1.000000
[RUpArm]
#Fr	Tx	Ty	Tz	Rx	Ry	Rz	SF
687	0.000000	0.000000	0.000000	68.146210	34.235714	-11.740146	1.000000
688	0.000000	0.000000	0.000000	67.161011	33.506760	-12.353797	1.000000
689	0.000000	0.000000	0.000000	66.673485	32.103699	-11.970751	1.000000
690	0.000000	0.000000	0.000000	66.892151	30.043417	-10.403988	1.000000
[LLowArm]
#Fr	Tx	Ty	Tz	Rx	Ry	Rz	SF
687	0.000000	0.000000	0.000000	-8.905387	1.338958	-0.293845	1.000000
688	0.000000	0.000000	0.000000	-5.047858	0.764838	-0.141045	1.000000
689	0.000000	0.000000	0.000000	-1.492462	0.227420	-0.034682	1.000000
690	0.000000	0.000000	0.000000	0.427312	-0.065276	0.008838	1.000000
[RLowArm]
#Fr	Tx	Ty	Tz	Rx	Ry	Rz	SF
687	0.000000	0.000000	0.000000	101.007851	5.045435	5.934327	1.000000
688	0.000000	0.000000	0.000000	100.578529	5.051921	5.897116	1.000000
689	0.000000	0.000000	0.000000	100.502258	5.053044	5.890500	1.000000
690	0.000000	0.000000	0.000000	100.845879	5.047915	5.920295	1.000000
[LHand]
#Fr	Tx	Ty	Tz	Rx	Ry	Rz	SF
687	0.000000	0.000000	0.000000	28.626387	-22.802198	-11.721126	1.000000
688	0.000000	0.000000	0.000000	22.541735	-22.372818	-8.708890	1.000000
689	0.000000	0.000000	0.000000	15.667259	-21.352468	-5.326160	1.000000
690	0.000000	0.000000	0.000000	10.596674	-20.189993	-2.672860	1.000000
[RHand]
#Fr	Tx	Ty	Tz	Rx	Ry	Rz	SF
687	0.000000	0.000000	0.000000	10.922008	-23.932751	-17.710310	1.000000
688	0.000000	0.000000	0.000000	11.993040	-23.120655	-18.391420	1.000000
689	0.000000	0.000000	0.000000	12.273625	-22.565018	-18.838404	1.000000
690	0.000000	0.000000	0.000000	11.807215	-22.209133	-19.185301	1.000000
[LPelvis]
#Fr	Tx	Ty	Tz	Rx	Ry	Rz	SF
687	0.000000	0.000000	0.000000	0.000000	0.000000	0.000000	1.000000
688	0.000000	0.000000	0.000000	0.000000	0.000000	0.000000	1.000000
689	0.000000	0.000000	0.000000	0.000000	0.000000	0.000000	1.000000
690	0.000000	0.000000	0.000000	0.000000	0.000000	0.000000	1.000000
[RPelvis]
#Fr	Tx	Ty	Tz	Rx	Ry	Rz	SF
687	0.000000	0.000000	0.000000	0.000000	0.000000	0.000000	1.000000
688	0.000000	0.000000	0.000000	0.000000	0.000000	0.000000	1.000000
689	0.000000	0.000000	0.000000	0.000000	0.000000	0.000000	1.000000
690	0.000000	0.000000	0.000000	0.000000	0.000000	0.000000	1.000000
[LThigh]
#Fr	Tx	Ty	Tz	Rx	Ry	Rz	SF
687	0.000000	0.000000	0.000000	52.009968	9.642071	-6.469111	1.000000
688	0.000000	0.000000	0.000000	50.685688	8.662598	-6.964536	1.000000
689	0.000000	0.000000	0.000000	49.042393	7.733085	-7.350254	1.000000
690	0.000000	0.000000	0.000000	47.334297	6.942699	-7.582689	1.000000
[RThigh]
#Fr	Tx	Ty	Tz	Rx	Ry	Rz	SF
687	0.000000	0.000000	0.000000	3.440178	-11.093707	8.612701	1.000000
688	0.000000	0.000000	0.000000	2.107089	-11.126177	8.596082	1.000000
689	0.000000	0.000000	0.000000	0.644855	-11.423975	8.688585	1.000000
690	0.000000	0.000000	0.000000	-0.793881	-11.834508	8.835646	1.000000
[LLowLeg]
#Fr	Tx	Ty	Tz	Rx	Ry	Rz	SF
687	0.000000	0.000000	0.000000	-39.410259	3.204875	-0.276646	1.000000
688	0.000000	0.000000	0.000000	-33.961857	2.784697	-0.107392	1.000000
689	0.000000	0.000000	0.000000	-28.831623	2.375826	0.014807	1.000000
690	0.000000	0.000000	0.000000	-24.590876	2.030554	0.087863	1.000000
[RLowLeg]
#Fr	Tx	Ty	Tz	Rx	Ry	Rz	SF
687	0.000000	0.000000	0.000000	-16.299763	-0.916799	-0.110555	1.000000
688	0.000000	0.000000	0.000000	-16.238155	-0.913298	-0.110631	1.000000
689	0.000000	0.000000	0.000000	-16.453856	-0.925555	-0.110348	1.000000
690	0.000000	0.000000	0.000000	-17.020445	-0.957747	-0.109386	1.000000
[LFoot]
#Fr	Tx	Ty	Tz	Rx	Ry	Rz	SF
687	0.000000	0.000000	0.000000	-2.817696	3.369771	4.907684	1.000000
688	0.000000	0.000000	0.000000	-1.670195	1.460664	2.101650	1.000000
689	0.000000	0.000000	0.000000	-0.449903	-0.409386	-0.871568	1.000000
690	0.000000	0.000000	0.000000	0.748165	-1.821255	-3.252897	1.000000
[RFoot]
#Fr	Tx	Ty	Tz	Rx	Ry	Rz	SF
687	0.000000	0.000000	0.000000	-18.585438	16.297630	19.843155	1.000000
688	0.000000	0.000000	0.000000	-20.306082	16.109997	19.031734	1.000000
689	0.000000	0.000000	0.000000	-21.668024	15.796440	18.300095	1.000000
690	0.000000	0.000000	0.000000	-22.742966	15.634129	17.795115	1.000000
[Neck]
#Fr	Tx	Ty	Tz	Rx	Ry	Rz	SF
687	0.000000	0.000000	0.000000	-1.967288	-5.493174	3.148195	1.000000
688	0.000000	0.000000	0.000000	-1.676174	-5.135952	3.016688	1.000000
689	0.000000	0.000000	0.000000	-1.409851	-4.775674	2.875780	1.000000
690	0.000000	0.000000	0.000000	-1.184484	-4.419849	2.724018	1.000000
[Head]
#Fr	Tx	Ty	Tz	Rx	Ry	Rz	SF
687	0.000000	0.000000	0.000000	-2.633555	-12.870605	-0.742488	1.000000
688	0.000000	0.000000	0.000000	-2.171020	-12.094190	-0.628780	1.000000
689	0.000000	0.000000	0.000000	-1.703459	-11.294134	-0.511019	1.000000
690	0.000000	0.000000	0.000000	-1.387219	-10.508639	-0.409192	1.000000
[EndOfFile]
